<svg width="512" height="512" viewBox="0 0 512 512" fill="none" xmlns="http://www.w3.org/2000/svg">
<g clip-path="url(#clip0_2066_104)">
<rect width="512" height="512" fill="white"/>
<g clip-path="url(#clip1_2066_104)">
<g filter="url(#filter0_d_2066_104)">
<path d="M625.001 -28.2572C627.199 -22.799 627.994 -16.8492 627.313 -10.9992C626.632 -5.14925 624.515 0.454458 621.117 5.29424C617.746 10.1228 613.229 14.0358 607.95 16.685C599.298 21.0313 590.812 28.3462 590.672 38.0275L588.339 190.879C587.768 227.684 565.102 260.529 530.904 274.097L314.949 359.775C280.752 373.343 241.733 364.97 216.113 338.557L115.363 234.793C105.485 224.616 88.5623 225.717 74.3952 226.443C65.726 226.881 57.1953 224.131 50.4181 218.727C43.6408 213.324 39.0891 205.634 37.5642 197.103C36.0675 188.56 37.7539 179.733 42.2691 172.362C46.8125 164.98 53.902 159.492 62.1942 156.952C70.4863 154.413 79.4342 155.007 87.3205 158.6C95.2067 162.193 101.508 168.536 105.045 176.465C110.855 189.463 117.446 205.089 131.002 209.401L162.182 219.317C205.168 233.001 246.857 195.055 237.3 150.979L225.529 96.7189C222.554 83.0525 207.949 75.1094 195.752 68.2995C188.307 64.1727 182.62 57.4882 179.686 49.516C176.751 41.5438 176.759 32.7632 179.733 24.7963C182.706 16.8295 188.464 10.2053 195.91 6.1091C203.356 2.01289 212.045 0.719387 220.336 2.4549C228.667 4.20742 236.105 8.89181 241.257 15.6255C246.419 22.3874 248.992 30.7641 248.518 39.2731C247.73 53.1599 246.861 69.7218 256.944 79.263L281.058 102.13C316.88 136.08 376.016 112.586 378.83 63.3399L380.733 29.7266C381.527 15.7722 369.574 4.23198 359.565 -5.53426C353.487 -11.4764 349.719 -19.4116 348.994 -27.9013C348.24 -36.3799 350.562 -44.8386 355.555 -51.7466C360.519 -58.6433 367.815 -63.5285 376.089 -65.5384C384.346 -67.509 393.079 -66.4707 400.626 -62.5801C408.202 -58.7007 414.137 -52.2126 417.325 -44.3411C420.524 -36.4414 420.804 -27.6769 418.066 -19.608C413.608 -6.4186 408.371 9.33123 415.552 21.2636L443.941 68.4738C467.335 107.289 523.93 106.339 545.979 66.7557L566.131 30.5353C570.717 22.3533 567.287 12.0648 562.178 4.20481C559.077 -0.568766 557.178 -6.01482 556.602 -11.6599C556.027 -17.305 556.831 -23.0082 558.947 -28.2852C561.034 -33.5511 564.382 -38.2728 568.65 -41.9893C572.947 -45.717 578.063 -48.3666 583.597 -49.7141C589.104 -51.0503 594.86 -51.0172 600.381 -49.6838C605.903 -48.3503 611.026 -45.7169 615.319 -41.9707C619.6 -38.2527 622.91 -33.5292 625.001 -28.2572ZM672.522 367.782C663.831 345.876 639.062 335.178 617.157 343.869L299.991 469.702C278.113 478.382 267.388 503.161 276.078 525.067C284.769 546.973 309.566 557.659 331.443 548.979L648.609 423.147C670.515 414.456 681.213 389.687 672.522 367.782ZM602.316 297.745C597.104 284.607 582.219 278.178 569.081 283.39L293.922 392.557C280.785 397.77 274.356 412.654 279.568 425.792C284.78 438.93 299.665 445.359 312.803 440.146L587.962 330.979C601.099 325.767 607.528 310.882 602.316 297.745Z" fill="#2C2C2C"/>
</g>
</g>
<g filter="url(#filter1_d_2066_104)">
<path d="M191.982 446.435C191.393 449.342 190.077 452.067 188.167 454.341C186.258 456.615 183.812 458.387 181.039 459.481C178.28 460.579 175.293 460.973 172.336 460.624C167.488 460.053 161.886 460.779 159.142 464.816L115.755 528.515C105.305 543.851 86.6506 551.39 68.4903 547.614L-46.1905 523.773C-64.3507 519.997 -78.4542 505.648 -81.9119 487.421L-95.5391 415.789C-96.8744 408.764 -104.304 404.533 -110.469 400.909C-114.24 398.688 -117.069 395.164 -118.423 391.009C-119.777 386.854 -119.56 382.354 -117.835 378.339C-116.095 374.328 -112.936 371.08 -108.991 369.23C-105.03 367.382 -100.523 367.038 -96.3276 368.27C-92.1323 369.501 -88.5302 372.234 -86.2071 375.934C-83.8839 379.634 -82.9907 384.053 -83.7012 388.372C-84.8616 395.456 -86.4218 403.862 -81.9116 409.438L-71.5363 422.263C-57.2362 439.948 -29.1592 435.54 -20.9551 414.333L-10.8575 388.225C-8.3185 381.647 -12.2631 374.251 -15.5086 368.001C-17.4981 364.198 -18.0376 359.806 -17.0614 355.636C-16.0851 351.466 -13.6459 347.772 -10.1839 345.243C-6.72184 342.714 -2.46024 341.523 1.81074 341.864C6.08172 342.205 10.0982 344.071 13.1072 347.102C16.1281 350.151 17.9599 354.186 18.2605 358.45C18.5579 362.729 17.3172 366.969 14.7569 370.419C10.5726 376.047 5.61224 382.778 7.21004 389.592L11.0181 405.908C16.6794 430.138 48.0925 436.653 62.9388 416.702L73.0647 403.08C77.2702 397.425 75.4398 389.251 73.9355 382.363C73.0256 378.176 73.6406 373.79 75.6905 370.015C77.7255 366.236 81.0495 363.319 85.0677 361.796C89.0709 360.27 93.4977 360.238 97.5384 361.687C101.561 363.148 104.949 366.008 107.047 369.739C109.16 373.474 109.859 377.852 109.017 382.05C108.172 386.263 105.859 390.031 102.468 392.668C96.9319 396.984 90.3579 402.161 90.0708 409.176L88.9248 436.926C88.005 459.757 112.094 475.057 132.357 464.511L150.889 454.853C155.089 452.681 156.5 447.398 156.53 442.672C156.548 439.802 157.259 436.983 158.583 434.446C159.907 431.91 161.828 429.733 164.182 428.098C166.522 426.46 169.241 425.401 172.069 425.021C174.912 424.644 177.801 424.947 180.505 425.916C183.193 426.881 185.607 428.491 187.562 430.584C189.516 432.678 190.943 435.208 191.71 437.975C192.481 440.728 192.564 443.635 191.982 446.435ZM102.118 626.341C104.537 614.708 97.0773 603.334 85.4445 600.915L-82.9835 565.9C-94.6013 563.484 -105.991 570.941 -108.409 582.573C-110.828 594.206 -103.354 605.584 -91.7358 607.999L76.6922 643.015C88.325 645.433 99.6997 637.974 102.118 626.341ZM91.9928 577.381C93.4432 570.404 88.9605 563.568 81.9838 562.118L-64.1369 531.74C-71.1135 530.29 -77.9492 534.772 -79.3996 541.749C-80.85 548.726 -76.3674 555.561 -69.3907 557.012L76.73 587.39C83.7066 588.84 90.5424 584.357 91.9928 577.381Z" fill="#CACACA"/>
</g>
</g>
<defs>
<filter id="filter0_d_2066_104" x="33.0312" y="-66.5156" width="646.508" height="626.508" filterUnits="userSpaceOnUse" color-interpolation-filters="sRGB">
<feFlood flood-opacity="0" result="BackgroundImageFix"/>
<feColorMatrix in="SourceAlpha" type="matrix" values="0 0 0 0 0 0 0 0 0 0 0 0 0 0 0 0 0 0 127 0" result="hardAlpha"/>
<feOffset dy="4"/>
<feGaussianBlur stdDeviation="2"/>
<feComposite in2="hardAlpha" operator="out"/>
<feColorMatrix type="matrix" values="0 0 0 0 0 0 0 0 0 0 0 0 0 0 0 0 0 0 0.25 0"/>
<feBlend mode="normal" in2="BackgroundImageFix" result="effect1_dropShadow_2066_104"/>
<feBlend mode="normal" in="SourceGraphic" in2="effect1_dropShadow_2066_104" result="shape"/>
</filter>
<filter id="filter1_d_2066_104" x="-123.305" y="341.805" width="319.664" height="309.664" filterUnits="userSpaceOnUse" color-interpolation-filters="sRGB">
<feFlood flood-opacity="0" result="BackgroundImageFix"/>
<feColorMatrix in="SourceAlpha" type="matrix" values="0 0 0 0 0 0 0 0 0 0 0 0 0 0 0 0 0 0 127 0" result="hardAlpha"/>
<feOffset dy="4"/>
<feGaussianBlur stdDeviation="2"/>
<feComposite in2="hardAlpha" operator="out"/>
<feColorMatrix type="matrix" values="0 0 0 0 0 0 0 0 0 0 0 0 0 0 0 0 0 0 0.25 0"/>
<feBlend mode="normal" in2="BackgroundImageFix" result="effect1_dropShadow_2066_104"/>
<feBlend mode="normal" in="SourceGraphic" in2="effect1_dropShadow_2066_104" result="shape"/>
</filter>
<clipPath id="clip0_2066_104">
<rect width="512" height="512" fill="white"/>
</clipPath>
<clipPath id="clip1_2066_104">
<rect width="727.927" height="727.927" fill="white" transform="translate(-105 0.445312) rotate(-21.6403)"/>
</clipPath>
</defs>
</svg>
